<svg width="11" height="10" viewBox="0 0 11 10" fill="none" xmlns="http://www.w3.org/2000/svg">
<path d="M1 4.35C0.641015 4.35 0.35 4.64101 0.35 5C0.35 5.35899 0.641015 5.65 1 5.65L1 4.35ZM10.4596 5.45962C10.7135 5.20578 10.7135 4.79422 10.4596 4.54038L6.32304 0.403806C6.0692 0.149965 5.65764 0.149965 5.4038 0.403806C5.14996 0.657646 5.14996 1.0692 5.4038 1.32304L9.08076 5L5.4038 8.67695C5.14996 8.9308 5.14996 9.34235 5.4038 9.59619C5.65765 9.85003 6.0692 9.85003 6.32304 9.59619L10.4596 5.45962ZM1 5.65L10 5.65L10 4.35L1 4.35L1 5.65Z"
fill="#FF0000"></path>
</svg>