<?xml version="1.0" encoding="utf-8"?>
<!-- Generator: Adobe Illustrator 18.1.1, SVG Export Plug-In . SVG Version: 6.00 Build 0)  -->
<svg version="1.1" id="Layer_1" xmlns="http://www.w3.org/2000/svg" xmlns:xlink="http://www.w3.org/1999/xlink" x="0px" y="0px"
	 viewBox="0 0 425.2 425.2" enable-background="new 0 0 425.2 425.2" xml:space="preserve">
<g>
	<path fill="#5E50A1" d="M228.6,258.8c-10.3,14.6-26.6,25.7-48.7,33.1c-22.1-7.4-38.5-18.5-48.7-33.1c-10.2-14.6-11.8-29-11.8-36.3
		v-110l143,0c0-13.2,0-22,0-22h-165c0,0,0,94.4,0,132c0,27,14.5,72.7,82.5,92.5c68-19.8,82.5-65.5,82.5-92.5h-22
		C240.4,229.8,238.9,244.2,228.6,258.8z"/>
	<g>
		<path fill="#5E50A1" d="M144.2,133.8c3,1.5,3.4,4.3,3.1,6c-0.6,3.5-2.9,5.7-7.8,5.7h-8.9v-21.9h8.8c4.2,0,7.2,2.5,7.1,6.7
			C146.4,131.3,145.8,133,144.2,133.8z M139.4,132.2c2.7,0,2.8-3.9,0-3.9h-3.2v3.9H139.4z M139.4,140.6c3.3,0,3.3-4.5,0-4.5h-3.2
			v4.5H139.4z"/>
		<path fill="#5E50A1" d="M157.3,132.2h8.9v4.8h-8.9v3.3h9.7v5.2h-15.3v-21.9h15.3v5.2h-9.7V132.2z"/>
		<path fill="#5E50A1" d="M171.7,123.6h5.6V140h8.9v5.5h-14.5V123.6z"/>
		<path fill="#5E50A1" d="M210,145.5H204l-1.4-4.4h-5.8l-1.4,4.4h-5.9l7.6-21.9h5L210,145.5z M201.3,136.2l-1.5-6.4h-0.2l-1.6,6.4
			H201.3z"/>
		<path fill="#5E50A1" d="M220.4,138.5h-1v7h-5.6v-21.9h8.8c4.5,0,8,2.1,8.1,7.2c0,4.1-1.6,6.3-4.3,7.2l6,7.5h-6.9L220.4,138.5z
			 M222.6,133.8c3.5,0,3.5-5,0-5h-3.2v5H222.6z"/>
		<path fill="#5E50A1" d="M240.8,138.2c0,3.5,6.2,3.5,6.3,0v-14.6h5.6v14.6c0,10.3-17.5,10.3-17.5,0v-14.6h5.6V138.2z"/>
		<path fill="#5E50A1" d="M260.3,138.6c2.2,2.7,7,2.8,7.2,0.4c0.1-1.2-1.9-2-3.7-2.2c-3.5-0.6-6.7-2.8-6.7-7c0-4.3,3.9-6.6,7.9-6.6
			c2.7,0,5.2,0.7,7.5,3.5l-3.6,2.8c-2.3-2.4-6.2-2.4-6.3,0.2c0.1,1.1,1.2,1.7,2.9,2c3.9,0.7,7.8,2.1,7.5,7.5
			c-0.2,4.2-4.6,6.6-8.7,6.6c-2.6,0-5.4-1.3-7.5-4L260.3,138.6z"/>
		<path fill="#5E50A1" d="M282.7,145.5h-5.5v-21.9h5.5V145.5z"/>
		<path fill="#5E50A1" d="M307,145.5h-5.9l-1.4-4.4h-5.8l-1.4,4.4h-5.9l7.6-21.9h5L307,145.5z M298.3,136.2l-1.5-6.4h-0.2l-1.6,6.4
			H298.3z"/>
		<path fill="#5E50A1" d="M310.9,123.6h5.3l5.3,9.3l1.9,4.4l0.2,0c0,0-0.6-3.8-0.6-3.8v-9.9h5.5v21.9h-5.6l-4.9-8.6l-1.9-4.4l-0.2,0
			l0.7,4.2v8.8h-5.5V123.6z"/>
		<path fill="#5E50A1" d="M136.1,178.5h-5.6v-21.9h5.6v8.3h6.3v-8.3h5.6v21.9h-5.6v-8.3h-6.3V178.5z"/>
		<path fill="#5E50A1" d="M158.8,165.2h8.9v4.8h-8.9v3.3h9.6v5.2h-15.2v-21.9h15.2v5.2h-9.6V165.2z"/>
		<path fill="#5E50A1" d="M173.3,156.6h5.6V173h8.9v5.5h-14.5V156.6z"/>
		<path fill="#5E50A1" d="M194.9,171.6c2.2,2.7,7,2.8,7.2,0.4c0.1-1.2-1.9-1.9-3.7-2.2c-3.5-0.6-6.7-2.8-6.7-7
			c0-4.3,3.9-6.6,7.9-6.6c2.7,0,5.2,0.7,7.5,3.5l-3.6,2.8c-2.3-2.4-6.2-2.3-6.3,0.2c0.1,1.1,1.2,1.7,2.9,2c3.9,0.7,7.8,2.1,7.5,7.5
			c-0.2,4.2-4.6,6.6-8.7,6.6c-2.6,0-5.4-1.3-7.5-4L194.9,171.6z"/>
		<path fill="#5E50A1" d="M217.3,178.5h-5.5v-21.9h5.5V178.5z"/>
		<path fill="#5E50A1" d="M222.4,156.6h5.3l5.3,9.3l1.9,4.4l0.2,0c0,0-0.6-3.8-0.6-3.8v-9.9h5.5v21.9h-5.6l-4.9-8.6l-1.9-4.4l-0.2,0
			l0.7,4.2v8.8h-5.5V156.6z"/>
		<path fill="#5E50A1" d="M256.6,156.6h6.9l-8.7,10.6l8.6,11.3h-7l-5.6-7.8l-0.2,0.2v7.6h-5.6v-21.9h5.6v8.1L256.6,156.6z"/>
		<path fill="#5E50A1" d="M272.8,178.5h-5.5v-21.9h5.5V178.5z"/>
		<path fill="#5E50A1" d="M146.6,206.9c-1.8,3.6-5.1,4.9-7.9,4.9c-4.3,0-8.6-2.5-8.6-7.5v-7.5c0-4.9,4.3-7.5,8.7-7.5
			c2.7,0,5.9,1.1,7.7,5l-4.5,1.8c-1.5-2.7-6.4-2.1-6.4,0.6v7.5c0,2.6,4.9,3.4,6.2,0.3L146.6,206.9z"/>
		<path fill="#5E50A1" d="M150.3,196.8c0-5,4.5-7.5,9.1-7.5c4.5,0,9.1,2.5,9.1,7.5v7.5c0,5-4.5,7.5-9.1,7.5c-4.5,0-9.1-2.5-9.1-7.5
			V196.8z M155.8,204.3c0,1.6,1.8,2.4,3.6,2.4c1.8,0,3.5-0.8,3.5-2.4v-7.5c0-1.7-1.8-2.5-3.6-2.5c-1.7,0-3.5,0.9-3.5,2.5V204.3z"/>
		<path fill="#5E50A1" d="M173.2,189.6h5.5l4.6,10.7l4.6-10.7h5.5v21.9h-5.6l0-6.3l0.3-4.4l-0.2,0l-2.9,7.5h-3.8l-2.9-7.5l-0.2,0
			l0.4,4.4v6.3h-5.5V189.6z"/>
		<path fill="#5E50A1" d="M198.7,189.6h5.5l4.6,10.7l4.6-10.7h5.5v21.9h-5.6l0-6.3l0.3-4.4l-0.2,0l-2.9,7.5h-3.8l-2.9-7.5l-0.2,0
			l0.4,4.4v6.3h-5.5V189.6z"/>
		<path fill="#5E50A1" d="M229.8,211.5h-5.5v-21.9h5.5V211.5z"/>
		<path fill="#5E50A1" d="M245.3,194.8v16.7h-5.6v-16.7h-5.8v-5.3h17.2v5.3H245.3z"/>
		<path fill="#5E50A1" d="M266,194.8v16.7h-5.6v-16.7h-5.8v-5.3h17.2v5.3H266z"/>
		<path fill="#5E50A1" d="M281.6,198.2h8.9v4.8h-8.9v3.3h9.7v5.2H276v-21.9h15.3v5.2h-9.7V198.2z"/>
		<path fill="#5E50A1" d="M301.7,198.2h8.9v4.8h-8.9v3.3h9.7v5.2h-15.3v-21.9h15.3v5.2h-9.7V198.2z"/>
	</g>
</g>
</svg>
