<svg width="426" height="426" viewBox="0 0 426 426" fill="none" xmlns="http://www.w3.org/2000/svg">
	<path d="M238.135 302.949C221.56 326.444 195.329 344.307 159.764 356.215C124.199 344.307 97.8074 326.444 81.393 302.949C64.9785 279.454 62.4037 256.28 62.4037 244.533V67.5141H292.528C292.528 46.2718 292.528 32.1104 292.528 32.1104H27C27 32.1104 27 184.025 27 244.533C27 287.983 50.3343 361.526 159.764 393.389C269.194 361.526 292.528 287.983 292.528 244.533H257.124C257.124 256.28 254.71 279.454 238.135 302.949Z" fill="#5E50A1"/>
	<path d="M102.313 101.792C107.141 104.206 107.785 108.712 107.302 111.447C106.337 117.08 102.635 120.62 94.7499 120.62H80.4275V85.3774H94.589C101.348 85.3774 106.176 89.4006 106.015 96.1595C105.854 97.7688 104.888 100.504 102.313 101.792ZM94.589 99.2171C98.934 99.2171 99.0949 92.941 94.589 92.941H89.4393V99.2171H94.589ZM94.589 112.735C99.8995 112.735 99.8995 105.493 94.589 105.493H89.4393V112.735H94.589Z" fill="#5E50A1"/>
	<path d="M123.395 99.2171H137.717V106.942H123.395V112.252H139.005V120.62H114.383V85.3774H139.005V93.7456H123.395V99.2171Z" fill="#5E50A1"/>
	<path d="M146.568 85.3774H155.58V111.769H169.903V120.62H146.568V85.3774Z" fill="#5E50A1"/>
	<path d="M208.203 120.62H198.547L196.294 113.54H186.96L184.708 120.62H175.213L187.443 85.3774H195.49L208.203 120.62ZM194.202 105.654L191.788 95.3549H191.466L188.892 105.654H194.202Z" fill="#5E50A1"/>
	<path d="M224.939 109.355H223.33V120.62H214.318V85.3774H228.479C235.721 85.3774 241.353 88.7569 241.514 96.9641C241.514 103.562 238.94 107.102 234.595 108.551L244.25 120.62H233.146L224.939 109.355ZM228.479 101.792C234.112 101.792 234.112 93.7456 228.479 93.7456H223.33V101.792H228.479Z" fill="#5E50A1"/>
	<path d="M257.768 108.873C257.768 114.505 267.746 114.505 267.907 108.873V85.3774H276.918V108.873C276.918 125.448 248.756 125.448 248.756 108.873V85.3774H257.768V108.873Z" fill="#5E50A1"/>
	<path d="M289.149 109.517C292.689 113.862 300.413 114.022 300.735 110.16C300.896 108.229 297.678 106.942 294.781 106.62C289.149 105.654 283.999 102.114 283.999 95.355C283.999 88.4352 290.275 84.7339 296.712 84.7339C301.057 84.7339 305.08 85.8604 308.782 90.3663L302.988 94.8722C299.287 91.01 293.011 91.01 292.85 95.1941C293.011 96.9643 294.781 97.9298 297.517 98.4126C303.793 99.5391 310.069 101.792 309.586 110.482C309.264 117.241 302.184 121.103 295.586 121.103C291.401 121.103 286.896 119.011 283.516 114.666L289.149 109.517Z" fill="#5E50A1"/>
	<path d="M325.196 120.62H316.345V85.3774H325.196V120.62Z" fill="#5E50A1"/>
	<path d="M364.301 120.62H354.806L352.553 113.54H343.22L340.967 120.62H331.472L343.703 85.3774H351.749L364.301 120.62ZM350.3 105.654L347.887 95.3549H347.565L344.99 105.654H350.3Z" fill="#5E50A1"/>
	<path d="M370.577 85.3774H379.106L387.635 100.344L390.693 107.424H391.015L390.049 101.309V85.3774H398.9V120.62H389.888L382.003 106.781L378.945 99.6999H378.623L379.75 106.459V120.62H370.899V85.3774H370.577Z" fill="#5E50A1"/>
	<path d="M89.2783 173.725H80.2665V138.482H89.2783V151.839H99.4167V138.482H108.429V173.725H99.4167V160.368H89.2783V173.725Z" fill="#5E50A1"/>
	<path d="M125.809 152.322H140.131V160.047H125.809V165.357H141.258V173.725H116.797V138.482H141.258V146.851H125.809V152.322Z" fill="#5E50A1"/>
	<path d="M149.143 138.482H158.155V164.874H172.477V173.725H149.143V138.482Z" fill="#5E50A1"/>
	<path d="M183.903 162.621C187.444 166.966 195.168 167.127 195.49 163.265C195.651 161.334 192.432 160.208 189.536 159.725C183.903 158.759 178.754 155.219 178.754 148.46C178.754 141.54 185.03 137.839 191.467 137.839C195.812 137.839 199.835 138.965 203.536 143.471L197.743 147.977C194.042 144.115 187.765 144.276 187.604 148.299C187.765 150.069 189.536 151.035 192.271 151.518C198.547 152.644 204.824 154.897 204.341 163.587C204.019 170.346 196.938 174.208 190.34 174.208C186.156 174.208 181.65 172.116 178.271 167.771L183.903 162.621Z" fill="#5E50A1"/>
	<path d="M219.951 173.725H211.1V138.482H219.951V173.725Z" fill="#5E50A1"/>
	<path d="M228.158 138.482H236.687L245.216 153.449L248.273 160.529H248.595L247.63 154.414V138.482H256.481V173.725H247.469L239.583 159.886L236.526 152.805H236.204L237.331 159.564V173.725H228.48V138.482H228.158Z" fill="#5E50A1"/>
	<path d="M283.194 138.482H294.298L280.298 155.541L294.137 173.725H282.872L273.861 161.173L273.539 161.495V173.725H264.527V138.482H273.539V151.517L283.194 138.482Z" fill="#5E50A1"/>
	<path d="M309.265 173.725H300.414V138.482H309.265V173.725Z" fill="#5E50A1"/>
	<path d="M106.176 219.429C103.279 225.222 97.9685 227.314 93.4625 227.314C86.5427 227.314 79.6229 223.291 79.6229 215.245V203.175C79.6229 195.29 86.5427 191.106 93.6235 191.106C97.9685 191.106 103.118 192.876 106.015 199.152L98.7731 202.049C96.3592 197.704 88.4739 198.669 88.4739 203.014V215.084C88.4739 219.268 96.3592 220.555 98.4513 215.567L106.176 219.429Z" fill="#5E50A1"/>
	<path d="M112.13 203.175C112.13 195.129 119.372 191.106 126.774 191.106C134.016 191.106 141.418 195.129 141.418 203.175V215.245C141.418 223.291 134.177 227.314 126.774 227.314C119.532 227.314 112.13 223.291 112.13 215.245V203.175ZM120.981 215.245C120.981 217.82 123.877 219.107 126.774 219.107C129.671 219.107 132.407 217.82 132.407 215.245V203.175C132.407 200.44 129.51 199.152 126.613 199.152C123.877 199.152 120.981 200.601 120.981 203.175V215.245Z" fill="#5E50A1"/>
	<path d="M148.982 191.588H157.833L165.235 208.807L172.638 191.588H181.489V226.831H172.477V216.693L172.96 209.612H172.638L167.971 221.682H161.856L157.189 209.612H156.867L157.511 216.693V226.831H148.66V191.588H148.982Z" fill="#5E50A1"/>
	<path d="M190.018 191.588H198.869L206.272 208.807L213.674 191.588H222.525V226.831H213.513V216.693L213.996 209.612H213.674L209.007 221.682H202.892L198.225 209.612H197.904L198.547 216.693V226.831H189.696V191.588H190.018Z" fill="#5E50A1"/>
	<path d="M240.066 226.831H231.215V191.588H240.066V226.831Z" fill="#5E50A1"/>
	<path d="M265.01 199.956V226.831H255.998V199.956H246.664V191.427H274.344V199.956H265.01Z" fill="#5E50A1"/>
	<path d="M298.322 199.956V226.831H289.31V199.956H279.976V191.427H307.655V199.956H298.322Z" fill="#5E50A1"/>
	<path d="M323.426 205.428H337.748V213.152H323.426V218.463H339.035V226.831H314.414V191.588H339.035V199.957H323.426V205.428Z" fill="#5E50A1"/>
	<path d="M355.772 205.428H370.094V213.152H355.772V218.463H371.382V226.831H346.76V191.588H371.382V199.957H355.772V205.428Z" fill="#5E50A1"/>
</svg>
