<svg width="124" height="39" viewBox="0 0 124 39" fill="none" xmlns="http://www.w3.org/2000/svg">
    <path d="M42.502 8.11133H44.5527C44.5254 8.70508 44.3652 9.22852 44.0723 9.68164C43.7793 10.1348 43.373 10.4883 42.8535 10.7422C42.3379 10.9922 41.7285 11.1172 41.0254 11.1172C40.4551 11.1172 39.9453 11.0215 39.4961 10.8301C39.0508 10.6387 38.6719 10.3633 38.3594 10.0039C38.0508 9.64453 37.8145 9.20898 37.6504 8.69727C37.4902 8.18555 37.4102 7.60938 37.4102 6.96875V6.50586C37.4102 5.86523 37.4941 5.28906 37.6621 4.77734C37.834 4.26172 38.0762 3.82422 38.3887 3.46484C38.7051 3.10156 39.084 2.82422 39.5254 2.63281C39.9668 2.44141 40.457 2.3457 40.9961 2.3457C41.7383 2.3457 42.3652 2.47852 42.877 2.74414C43.3887 3.00977 43.7852 3.375 44.0664 3.83984C44.3477 4.30078 44.5137 4.82617 44.5645 5.41602H42.5137C42.5059 5.0957 42.4512 4.82812 42.3496 4.61328C42.248 4.39453 42.0879 4.23047 41.8691 4.12109C41.6504 4.01172 41.3594 3.95703 40.9961 3.95703C40.7422 3.95703 40.5215 4.00391 40.334 4.09766C40.1465 4.19141 39.9902 4.33984 39.8652 4.54297C39.7402 4.74609 39.6465 5.00977 39.584 5.33398C39.5254 5.6543 39.4961 6.04102 39.4961 6.49414V6.96875C39.4961 7.42188 39.5234 7.80859 39.5781 8.12891C39.6328 8.44922 39.7207 8.71094 39.8418 8.91406C39.9629 9.11719 40.1191 9.26758 40.3105 9.36523C40.5059 9.45898 40.7441 9.50586 41.0254 9.50586C41.3379 9.50586 41.6016 9.45703 41.8164 9.35938C42.0312 9.25781 42.1973 9.10547 42.3145 8.90234C42.4316 8.69531 42.4941 8.43164 42.502 8.11133ZM47.5176 4.66016V11H45.5371V4.66016H47.5176ZM45.4199 3.02539C45.4199 2.74414 45.5215 2.51367 45.7246 2.33398C45.9277 2.1543 46.1914 2.06445 46.5156 2.06445C46.8398 2.06445 47.1035 2.1543 47.3066 2.33398C47.5098 2.51367 47.6113 2.74414 47.6113 3.02539C47.6113 3.30664 47.5098 3.53711 47.3066 3.7168C47.1035 3.89648 46.8398 3.98633 46.5156 3.98633C46.1914 3.98633 45.9277 3.89648 45.7246 3.7168C45.5215 3.53711 45.4199 3.30664 45.4199 3.02539ZM51.0215 9.64648L52.2695 4.66016H54.3496L52.2754 11H51.0449L51.0215 9.64648ZM50.2832 4.66016L51.5137 9.64648L51.502 11H50.2656L48.1973 4.66016H50.2832ZM57.0215 4.66016V11H55.041V4.66016H57.0215ZM54.9238 3.02539C54.9238 2.74414 55.0254 2.51367 55.2285 2.33398C55.4316 2.1543 55.6953 2.06445 56.0195 2.06445C56.3438 2.06445 56.6074 2.1543 56.8105 2.33398C57.0137 2.51367 57.1152 2.74414 57.1152 3.02539C57.1152 3.30664 57.0137 3.53711 56.8105 3.7168C56.6074 3.89648 56.3438 3.98633 56.0195 3.98633C55.6953 3.98633 55.4316 3.89648 55.2285 3.7168C55.0254 3.53711 54.9238 3.30664 54.9238 3.02539ZM60.918 9.59375C61.1016 9.59375 61.2578 9.56055 61.3867 9.49414C61.5195 9.42383 61.6191 9.32617 61.6855 9.20117C61.7559 9.07227 61.7891 8.91797 61.7852 8.73828H63.6426C63.6465 9.21484 63.5293 9.63281 63.291 9.99219C63.0566 10.3477 62.7363 10.625 62.3301 10.8242C61.9277 11.0195 61.4727 11.1172 60.9648 11.1172C60.4688 11.1172 60.0352 11.0371 59.6641 10.877C59.293 10.7129 58.9824 10.4863 58.7324 10.1973C58.4863 9.9043 58.3008 9.5625 58.1758 9.17188C58.0547 8.78125 57.9941 8.35742 57.9941 7.90039V7.76562C57.9941 7.30859 58.0547 6.88477 58.1758 6.49414C58.3008 6.09961 58.4863 5.75781 58.7324 5.46875C58.9824 5.17578 59.291 4.94922 59.6582 4.78906C60.0293 4.625 60.4609 4.54297 60.9531 4.54297C61.4805 4.54297 61.9453 4.64258 62.3477 4.8418C62.7539 5.04102 63.0723 5.33008 63.3027 5.70898C63.5332 6.08789 63.6465 6.54688 63.6426 7.08594H61.7852C61.7891 6.89453 61.7598 6.72266 61.6973 6.57031C61.6348 6.41797 61.5371 6.29688 61.4043 6.20703C61.2754 6.11328 61.1094 6.06641 60.9062 6.06641C60.7031 6.06641 60.5391 6.11133 60.4141 6.20117C60.2891 6.29102 60.1934 6.41602 60.127 6.57617C60.0645 6.73242 60.0215 6.91211 59.998 7.11523C59.9785 7.31836 59.9688 7.53516 59.9688 7.76562V7.90039C59.9688 8.13477 59.9785 8.35547 59.998 8.5625C60.0215 8.76562 60.0664 8.94531 60.1328 9.10156C60.1992 9.25391 60.2949 9.375 60.4199 9.46484C60.5449 9.55078 60.7109 9.59375 60.918 9.59375ZM38.6699 15.4688H40.3457L42.25 21.4043L44.1543 15.4688H45.8301L42.9297 24H41.5703L38.6699 15.4688ZM37.6504 15.4688H39.3848L39.707 22.0078V24H37.6504V15.4688ZM45.1152 15.4688H46.8555V24H44.793V22.0078L45.1152 15.4688ZM47.834 20.8945V20.7715C47.834 20.3066 47.9004 19.8789 48.0332 19.4883C48.166 19.0938 48.3613 18.752 48.6191 18.4629C48.877 18.1738 49.1953 17.9492 49.5742 17.7891C49.9531 17.625 50.3906 17.543 50.8867 17.543C51.3867 17.543 51.8262 17.625 52.2051 17.7891C52.5879 17.9492 52.9082 18.1738 53.166 18.4629C53.4238 18.752 53.6191 19.0938 53.752 19.4883C53.8848 19.8789 53.9512 20.3066 53.9512 20.7715V20.8945C53.9512 21.3555 53.8848 21.7832 53.752 22.1777C53.6191 22.5684 53.4238 22.9102 53.166 23.2031C52.9082 23.4922 52.5898 23.7168 52.2109 23.877C51.832 24.0371 51.3945 24.1172 50.8984 24.1172C50.4023 24.1172 49.9629 24.0371 49.5801 23.877C49.1973 23.7168 48.877 23.4922 48.6191 23.2031C48.3613 22.9102 48.166 22.5684 48.0332 22.1777C47.9004 21.7832 47.834 21.3555 47.834 20.8945ZM49.8086 20.7715V20.8945C49.8086 21.1328 49.8262 21.3555 49.8613 21.5625C49.8965 21.7695 49.9551 21.9512 50.0371 22.1074C50.1191 22.2598 50.2305 22.3789 50.3711 22.4648C50.5117 22.5508 50.6875 22.5938 50.8984 22.5938C51.1055 22.5938 51.2773 22.5508 51.4141 22.4648C51.5547 22.3789 51.666 22.2598 51.748 22.1074C51.8301 21.9512 51.8887 21.7695 51.9238 21.5625C51.959 21.3555 51.9766 21.1328 51.9766 20.8945V20.7715C51.9766 20.541 51.959 20.3242 51.9238 20.1211C51.8887 19.9141 51.8301 19.7324 51.748 19.5762C51.666 19.416 51.5547 19.291 51.4141 19.2012C51.2734 19.1113 51.0977 19.0664 50.8867 19.0664C50.6797 19.0664 50.5059 19.1113 50.3652 19.2012C50.2285 19.291 50.1191 19.416 50.0371 19.5762C49.9551 19.7324 49.8965 19.9141 49.8613 20.1211C49.8262 20.3242 49.8086 20.541 49.8086 20.7715ZM56.7695 19.0137V24H54.7949V17.6602H56.6465L56.7695 19.0137ZM56.5352 20.6133L56.0723 20.625C56.0723 20.1406 56.1309 19.709 56.248 19.3301C56.3652 18.9473 56.5312 18.623 56.7461 18.3574C56.9609 18.0918 57.2168 17.8906 57.5137 17.7539C57.8145 17.6133 58.1484 17.543 58.5156 17.543C58.8086 17.543 59.0762 17.5859 59.3184 17.6719C59.5645 17.7578 59.7754 17.8965 59.9512 18.0879C60.1309 18.2793 60.2676 18.5332 60.3613 18.8496C60.459 19.1621 60.5078 19.5488 60.5078 20.0098V24H58.5215V20.0039C58.5215 19.75 58.4863 19.5566 58.416 19.4238C58.3457 19.2871 58.2441 19.1934 58.1113 19.1426C57.9785 19.0918 57.8164 19.0664 57.625 19.0664C57.4219 19.0664 57.25 19.1055 57.1094 19.1836C56.9688 19.2617 56.8555 19.3711 56.7695 19.5117C56.6875 19.6484 56.627 19.8105 56.5879 19.998C56.5527 20.1855 56.5352 20.3906 56.5352 20.6133ZM63.6895 17.6602V24H61.709V17.6602H63.6895ZM61.5918 16.0254C61.5918 15.7441 61.6934 15.5137 61.8965 15.334C62.0996 15.1543 62.3633 15.0645 62.6875 15.0645C63.0117 15.0645 63.2754 15.1543 63.4785 15.334C63.6816 15.5137 63.7832 15.7441 63.7832 16.0254C63.7832 16.3066 63.6816 16.5371 63.4785 16.7168C63.2754 16.8965 63.0117 16.9863 62.6875 16.9863C62.3633 16.9863 62.0996 16.8965 61.8965 16.7168C61.6934 16.5371 61.5918 16.3066 61.5918 16.0254ZM68.248 17.6602V19.0312H64.4277V17.6602H68.248ZM65.2305 16.084H67.2051V21.9316C67.2051 22.0996 67.2246 22.2305 67.2637 22.3242C67.3027 22.4141 67.3691 22.4785 67.4629 22.5176C67.5605 22.5527 67.6895 22.5703 67.8496 22.5703C67.9629 22.5703 68.0566 22.5684 68.1309 22.5645C68.2051 22.5566 68.2754 22.5469 68.3418 22.5352V23.9473C68.1738 24.002 67.998 24.043 67.8145 24.0703C67.6309 24.1016 67.4355 24.1172 67.2285 24.1172C66.8066 24.1172 66.4453 24.0508 66.1445 23.918C65.8477 23.7852 65.6211 23.5762 65.4648 23.291C65.3086 23.0059 65.2305 22.6348 65.2305 22.1777V16.084ZM68.6113 20.8945V20.7715C68.6113 20.3066 68.6777 19.8789 68.8105 19.4883C68.9434 19.0938 69.1387 18.752 69.3965 18.4629C69.6543 18.1738 69.9727 17.9492 70.3516 17.7891C70.7305 17.625 71.168 17.543 71.6641 17.543C72.1641 17.543 72.6035 17.625 72.9824 17.7891C73.3652 17.9492 73.6855 18.1738 73.9434 18.4629C74.2012 18.752 74.3965 19.0938 74.5293 19.4883C74.6621 19.8789 74.7285 20.3066 74.7285 20.7715V20.8945C74.7285 21.3555 74.6621 21.7832 74.5293 22.1777C74.3965 22.5684 74.2012 22.9102 73.9434 23.2031C73.6855 23.4922 73.3672 23.7168 72.9883 23.877C72.6094 24.0371 72.1719 24.1172 71.6758 24.1172C71.1797 24.1172 70.7402 24.0371 70.3574 23.877C69.9746 23.7168 69.6543 23.4922 69.3965 23.2031C69.1387 22.9102 68.9434 22.5684 68.8105 22.1777C68.6777 21.7832 68.6113 21.3555 68.6113 20.8945ZM70.5859 20.7715V20.8945C70.5859 21.1328 70.6035 21.3555 70.6387 21.5625C70.6738 21.7695 70.7324 21.9512 70.8145 22.1074C70.8965 22.2598 71.0078 22.3789 71.1484 22.4648C71.2891 22.5508 71.4648 22.5938 71.6758 22.5938C71.8828 22.5938 72.0547 22.5508 72.1914 22.4648C72.332 22.3789 72.4434 22.2598 72.5254 22.1074C72.6074 21.9512 72.666 21.7695 72.7012 21.5625C72.7363 21.3555 72.7539 21.1328 72.7539 20.8945V20.7715C72.7539 20.541 72.7363 20.3242 72.7012 20.1211C72.666 19.9141 72.6074 19.7324 72.5254 19.5762C72.4434 19.416 72.332 19.291 72.1914 19.2012C72.0508 19.1113 71.875 19.0664 71.6641 19.0664C71.457 19.0664 71.2832 19.1113 71.1426 19.2012C71.0059 19.291 70.8965 19.416 70.8145 19.5762C70.7324 19.7324 70.6738 19.9141 70.6387 20.1211C70.6035 20.3242 70.5859 20.541 70.5859 20.7715ZM77.5996 19.2305V24H75.625V17.6602H77.4707L77.5996 19.2305ZM79.4746 17.6133L79.4395 19.4473C79.3613 19.4395 79.2559 19.4297 79.123 19.418C78.9902 19.4062 78.8789 19.4004 78.7891 19.4004C78.5586 19.4004 78.3594 19.4277 78.1914 19.4824C78.0273 19.5332 77.8906 19.6113 77.7812 19.7168C77.6758 19.8184 77.5977 19.9473 77.5469 20.1035C77.5 20.2598 77.4785 20.4414 77.4824 20.6484L77.125 20.4141C77.125 19.9883 77.166 19.6016 77.248 19.2539C77.334 18.9023 77.4551 18.5996 77.6113 18.3457C77.7676 18.0879 77.957 17.8906 78.1797 17.7539C78.4023 17.6133 78.6523 17.543 78.9297 17.543C79.0273 17.543 79.123 17.5488 79.2168 17.5605C79.3145 17.5723 79.4004 17.5898 79.4746 17.6133ZM82.2402 17.6602V24H80.2598V17.6602H82.2402ZM80.1426 16.0254C80.1426 15.7441 80.2441 15.5137 80.4473 15.334C80.6504 15.1543 80.9141 15.0645 81.2383 15.0645C81.5625 15.0645 81.8262 15.1543 82.0293 15.334C82.2324 15.5137 82.334 15.7441 82.334 16.0254C82.334 16.3066 82.2324 16.5371 82.0293 16.7168C81.8262 16.8965 81.5625 16.9863 81.2383 16.9863C80.9141 16.9863 80.6504 16.8965 80.4473 16.7168C80.2441 16.5371 80.1426 16.3066 80.1426 16.0254ZM85.3984 19.0137V24H83.4238V17.6602H85.2754L85.3984 19.0137ZM85.1641 20.6133L84.7012 20.625C84.7012 20.1406 84.7598 19.709 84.877 19.3301C84.9941 18.9473 85.1602 18.623 85.375 18.3574C85.5898 18.0918 85.8457 17.8906 86.1426 17.7539C86.4434 17.6133 86.7773 17.543 87.1445 17.543C87.4375 17.543 87.7051 17.5859 87.9473 17.6719C88.1934 17.7578 88.4043 17.8965 88.5801 18.0879C88.7598 18.2793 88.8965 18.5332 88.9902 18.8496C89.0879 19.1621 89.1367 19.5488 89.1367 20.0098V24H87.1504V20.0039C87.1504 19.75 87.1152 19.5566 87.0449 19.4238C86.9746 19.2871 86.873 19.1934 86.7402 19.1426C86.6074 19.0918 86.4453 19.0664 86.2539 19.0664C86.0508 19.0664 85.8789 19.1055 85.7383 19.1836C85.5977 19.2617 85.4844 19.3711 85.3984 19.5117C85.3164 19.6484 85.2559 19.8105 85.2168 19.998C85.1816 20.1855 85.1641 20.3906 85.1641 20.6133ZM94.2168 17.6602H96.0098V23.7539C96.0098 24.3398 95.875 24.8359 95.6055 25.2422C95.3359 25.6523 94.959 25.9629 94.4746 26.1738C93.9941 26.3887 93.4316 26.4961 92.7871 26.4961C92.502 26.4961 92.2109 26.459 91.9141 26.3848C91.6172 26.3145 91.3398 26.209 91.082 26.0684C90.8242 25.9277 90.6074 25.7539 90.4316 25.5469L91.2578 24.3867C91.418 24.5664 91.6191 24.7188 91.8613 24.8438C92.1035 24.9727 92.3887 25.0371 92.7168 25.0371C93.002 25.0371 93.2402 24.9863 93.4316 24.8848C93.627 24.7832 93.7754 24.6348 93.877 24.4395C93.9785 24.248 94.0293 24.0156 94.0293 23.7422V19.1602L94.2168 17.6602ZM90.0039 20.9062V20.7832C90.0039 20.3027 90.0625 19.8652 90.1797 19.4707C90.3008 19.0723 90.4727 18.7305 90.6953 18.4453C90.9219 18.1562 91.1953 17.9336 91.5156 17.7773C91.8359 17.6211 92.1973 17.543 92.5996 17.543C93.0332 17.543 93.3887 17.627 93.666 17.7949C93.9473 17.959 94.1719 18.1895 94.3398 18.4863C94.5117 18.7832 94.6445 19.1309 94.7383 19.5293C94.8359 19.9238 94.918 20.3496 94.9844 20.8066V20.9531C94.918 21.3828 94.8262 21.7891 94.709 22.1719C94.5957 22.5508 94.4473 22.8867 94.2637 23.1797C94.0801 23.4727 93.8496 23.7031 93.5723 23.8711C93.2988 24.0352 92.9707 24.1172 92.5879 24.1172C92.1895 24.1172 91.8301 24.0371 91.5098 23.877C91.1934 23.7168 90.9219 23.4922 90.6953 23.2031C90.4727 22.9141 90.3008 22.5742 90.1797 22.1836C90.0625 21.793 90.0039 21.3672 90.0039 20.9062ZM91.9785 20.7832V20.9062C91.9785 21.1445 92 21.3652 92.043 21.5684C92.0898 21.7715 92.1602 21.9512 92.2539 22.1074C92.3477 22.2598 92.4629 22.3789 92.5996 22.4648C92.7402 22.5508 92.9043 22.5938 93.0918 22.5938C93.377 22.5938 93.6074 22.5332 93.7832 22.4121C93.959 22.291 94.0859 22.1191 94.1641 21.8965C94.2422 21.6738 94.2754 21.4121 94.2637 21.1113V20.6484C94.2715 20.3906 94.2539 20.1641 94.2109 19.9688C94.168 19.7695 94.0996 19.6035 94.0059 19.4707C93.916 19.3379 93.7949 19.2383 93.6426 19.1719C93.4941 19.1016 93.3145 19.0664 93.1035 19.0664C92.9199 19.0664 92.7578 19.1094 92.6172 19.1953C92.4766 19.2812 92.3594 19.4023 92.2656 19.5586C92.1719 19.7109 92.0996 19.8926 92.0488 20.1035C92.002 20.3105 91.9785 20.5371 91.9785 20.7832ZM37.3105 33.8945V33.7715C37.3105 33.3066 37.377 32.8789 37.5098 32.4883C37.6426 32.0938 37.8379 31.752 38.0957 31.4629C38.3535 31.1738 38.6719 30.9492 39.0508 30.7891C39.4297 30.625 39.8672 30.543 40.3633 30.543C40.8633 30.543 41.3027 30.625 41.6816 30.7891C42.0645 30.9492 42.3848 31.1738 42.6426 31.4629C42.9004 31.752 43.0957 32.0938 43.2285 32.4883C43.3613 32.8789 43.4277 33.3066 43.4277 33.7715V33.8945C43.4277 34.3555 43.3613 34.7832 43.2285 35.1777C43.0957 35.5684 42.9004 35.9102 42.6426 36.2031C42.3848 36.4922 42.0664 36.7168 41.6875 36.877C41.3086 37.0371 40.8711 37.1172 40.375 37.1172C39.8789 37.1172 39.4395 37.0371 39.0566 36.877C38.6738 36.7168 38.3535 36.4922 38.0957 36.2031C37.8379 35.9102 37.6426 35.5684 37.5098 35.1777C37.377 34.7832 37.3105 34.3555 37.3105 33.8945ZM39.2852 33.7715V33.8945C39.2852 34.1328 39.3027 34.3555 39.3379 34.5625C39.373 34.7695 39.4316 34.9512 39.5137 35.1074C39.5957 35.2598 39.707 35.3789 39.8477 35.4648C39.9883 35.5508 40.1641 35.5938 40.375 35.5938C40.582 35.5938 40.7539 35.5508 40.8906 35.4648C41.0312 35.3789 41.1426 35.2598 41.2246 35.1074C41.3066 34.9512 41.3652 34.7695 41.4004 34.5625C41.4355 34.3555 41.4531 34.1328 41.4531 33.8945V33.7715C41.4531 33.541 41.4355 33.3242 41.4004 33.1211C41.3652 32.9141 41.3066 32.7324 41.2246 32.5762C41.1426 32.416 41.0312 32.291 40.8906 32.2012C40.75 32.1113 40.5742 32.0664 40.3633 32.0664C40.1562 32.0664 39.9824 32.1113 39.8418 32.2012C39.7051 32.291 39.5957 32.416 39.5137 32.5762C39.4316 32.7324 39.373 32.9141 39.3379 33.1211C39.3027 33.3242 39.2852 33.541 39.2852 33.7715ZM46.7266 37H44.7402V30.1445C44.7402 29.6523 44.8398 29.2383 45.0391 28.9023C45.2383 28.5664 45.5195 28.3125 45.8828 28.1406C46.2461 27.9648 46.6758 27.877 47.1719 27.877C47.3438 27.877 47.5059 27.8887 47.6582 27.9121C47.8105 27.9355 47.959 27.9648 48.1035 28L48.1094 29.4531C48.0391 29.4336 47.9668 29.4199 47.8926 29.4121C47.8184 29.4043 47.7266 29.4004 47.6172 29.4004C47.4258 29.4004 47.2637 29.4297 47.1309 29.4883C46.998 29.543 46.8965 29.627 46.8262 29.7402C46.7598 29.8496 46.7266 29.9844 46.7266 30.1445V37ZM47.957 30.6602V32.0312H43.8262V30.6602H47.957ZM55.1523 34.1055H53.0312V32.5176H55.1523C55.4414 32.5176 55.6758 32.4688 55.8555 32.3711C56.0352 32.2734 56.166 32.1387 56.248 31.9668C56.334 31.791 56.377 31.5938 56.377 31.375C56.377 31.1406 56.334 30.9238 56.248 30.7246C56.166 30.5254 56.0352 30.3652 55.8555 30.2441C55.6758 30.1191 55.4414 30.0566 55.1523 30.0566H53.8047V37H51.748V28.4688H55.1523C55.8359 28.4688 56.4238 28.5938 56.916 28.8438C57.4121 29.0938 57.793 29.4375 58.0586 29.875C58.3242 30.3086 58.457 30.8047 58.457 31.3633C58.457 31.9141 58.3242 32.3945 58.0586 32.8047C57.793 33.2148 57.4121 33.5352 56.916 33.7656C56.4238 33.9922 55.8359 34.1055 55.1523 34.1055ZM63.1738 35.459V30.6602H65.1543V37H63.3027L63.1738 35.459ZM63.3613 34.1699L63.877 34.1582C63.877 34.584 63.8262 34.9785 63.7246 35.3418C63.623 35.7012 63.4727 36.0137 63.2734 36.2793C63.0781 36.5449 62.8359 36.752 62.5469 36.9004C62.2617 37.0449 61.9316 37.1172 61.5566 37.1172C61.2441 37.1172 60.957 37.0742 60.6953 36.9883C60.4375 36.8984 60.2148 36.7598 60.0273 36.5723C59.8398 36.3809 59.6934 36.1367 59.5879 35.8398C59.4863 35.5391 59.4355 35.1797 59.4355 34.7617V30.6602H61.4102V34.7734C61.4102 34.9141 61.4277 35.0352 61.4629 35.1367C61.498 35.2383 61.5488 35.3242 61.6152 35.3945C61.6816 35.4609 61.7637 35.5117 61.8613 35.5469C61.9629 35.5781 62.0781 35.5938 62.207 35.5938C62.5039 35.5938 62.7363 35.5312 62.9043 35.4062C63.0723 35.2812 63.1895 35.1113 63.2559 34.8965C63.3262 34.6816 63.3613 34.4395 63.3613 34.1699ZM66.2617 28H68.2363V35.4414L68.0312 37H66.2617V28ZM72.127 33.7598V33.8828C72.127 34.3633 72.0781 34.8008 71.9805 35.1953C71.8828 35.5898 71.7324 35.9316 71.5293 36.2207C71.3262 36.5059 71.0703 36.7266 70.7617 36.8828C70.4531 37.0391 70.0879 37.1172 69.666 37.1172C69.2832 37.1172 68.9551 37.0352 68.6816 36.8711C68.4082 36.7031 68.1797 36.4727 67.9961 36.1797C67.8125 35.8828 67.6641 35.541 67.5508 35.1543C67.4375 34.7637 67.3477 34.3457 67.2812 33.9004V33.7539C67.3477 33.3125 67.4375 32.8984 67.5508 32.5117C67.6641 32.1211 67.8125 31.7793 67.9961 31.4863C68.1797 31.1895 68.4062 30.959 68.6758 30.7949C68.9492 30.627 69.2754 30.543 69.6543 30.543C70.0801 30.543 70.4473 30.623 70.7559 30.7832C71.0684 30.9434 71.3262 31.168 71.5293 31.457C71.7324 31.7461 71.8828 32.0859 71.9805 32.4766C72.0781 32.8672 72.127 33.2949 72.127 33.7598ZM70.1523 33.8828V33.7598C70.1523 33.5293 70.1387 33.3125 70.1113 33.1094C70.084 32.9062 70.0352 32.7266 69.9648 32.5703C69.8945 32.4141 69.7949 32.291 69.666 32.2012C69.5371 32.1113 69.3691 32.0664 69.1621 32.0664C68.9512 32.0664 68.7734 32.1016 68.6289 32.1719C68.4883 32.2422 68.375 32.3438 68.2891 32.4766C68.207 32.6055 68.1484 32.7656 68.1133 32.957C68.0781 33.1445 68.0625 33.3574 68.0664 33.5957V34.0586C68.0586 34.3828 68.0879 34.6602 68.1543 34.8906C68.2207 35.1211 68.3359 35.2969 68.5 35.418C68.6641 35.5391 68.8887 35.5996 69.1738 35.5996C69.3848 35.5996 69.5547 35.5586 69.6836 35.4766C69.8164 35.3945 69.916 35.2773 69.9824 35.125C70.0488 34.9727 70.0938 34.791 70.1172 34.5801C70.1406 34.3691 70.1523 34.1367 70.1523 33.8828ZM75.0918 28V37H73.1113V28H75.0918ZM78.3965 30.6602V37H76.416V30.6602H78.3965ZM76.2988 29.0254C76.2988 28.7441 76.4004 28.5137 76.6035 28.334C76.8066 28.1543 77.0703 28.0645 77.3945 28.0645C77.7188 28.0645 77.9824 28.1543 78.1855 28.334C78.3887 28.5137 78.4902 28.7441 78.4902 29.0254C78.4902 29.3066 78.3887 29.5371 78.1855 29.7168C77.9824 29.8965 77.7188 29.9863 77.3945 29.9863C77.0703 29.9863 76.8066 29.8965 76.6035 29.7168C76.4004 29.5371 76.2988 29.3066 76.2988 29.0254ZM82.293 35.5938C82.4766 35.5938 82.6328 35.5605 82.7617 35.4941C82.8945 35.4238 82.9941 35.3262 83.0605 35.2012C83.1309 35.0723 83.1641 34.918 83.1602 34.7383H85.0176C85.0215 35.2148 84.9043 35.6328 84.666 35.9922C84.4316 36.3477 84.1113 36.625 83.7051 36.8242C83.3027 37.0195 82.8477 37.1172 82.3398 37.1172C81.8438 37.1172 81.4102 37.0371 81.0391 36.877C80.668 36.7129 80.3574 36.4863 80.1074 36.1973C79.8613 35.9043 79.6758 35.5625 79.5508 35.1719C79.4297 34.7812 79.3691 34.3574 79.3691 33.9004V33.7656C79.3691 33.3086 79.4297 32.8848 79.5508 32.4941C79.6758 32.0996 79.8613 31.7578 80.1074 31.4688C80.3574 31.1758 80.666 30.9492 81.0332 30.7891C81.4043 30.625 81.8359 30.543 82.3281 30.543C82.8555 30.543 83.3203 30.6426 83.7227 30.8418C84.1289 31.041 84.4473 31.3301 84.6777 31.709C84.9082 32.0879 85.0215 32.5469 85.0176 33.0859H83.1602C83.1641 32.8945 83.1348 32.7227 83.0723 32.5703C83.0098 32.418 82.9121 32.2969 82.7793 32.207C82.6504 32.1133 82.4844 32.0664 82.2812 32.0664C82.0781 32.0664 81.9141 32.1113 81.7891 32.2012C81.6641 32.291 81.5684 32.416 81.502 32.5762C81.4395 32.7324 81.3965 32.9121 81.373 33.1152C81.3535 33.3184 81.3438 33.5352 81.3438 33.7656V33.9004C81.3438 34.1348 81.3535 34.3555 81.373 34.5625C81.3965 34.7656 81.4414 34.9453 81.5078 35.1016C81.5742 35.2539 81.6699 35.375 81.7949 35.4648C81.9199 35.5508 82.0859 35.5938 82.293 35.5938ZM94.6914 31.8555V33.4375H90.3145V31.8555H94.6914ZM91 28.4688V37H88.9434V28.4688H91ZM96.0742 28.4688V37H94.0234V28.4688H96.0742ZM100.357 37.1172C99.8418 37.1172 99.3809 37.0371 98.9746 36.877C98.5684 36.7129 98.2246 36.4883 97.9434 36.2031C97.666 35.918 97.4531 35.5898 97.3047 35.2188C97.1602 34.8477 97.0879 34.4551 97.0879 34.041V33.8184C97.0879 33.3535 97.1523 32.9238 97.2812 32.5293C97.4102 32.1309 97.6016 31.7832 97.8555 31.4863C98.1094 31.1895 98.4277 30.959 98.8105 30.7949C99.1934 30.627 99.6387 30.543 100.146 30.543C100.596 30.543 100.998 30.6152 101.354 30.7598C101.709 30.9043 102.01 31.1113 102.256 31.3809C102.506 31.6504 102.695 31.9766 102.824 32.3594C102.957 32.7422 103.023 33.1719 103.023 33.6484V34.4512H97.8438V33.2148H101.096V33.0625C101.1 32.8516 101.062 32.6719 100.984 32.5234C100.91 32.375 100.801 32.2617 100.656 32.1836C100.512 32.1055 100.336 32.0664 100.129 32.0664C99.9141 32.0664 99.7363 32.1133 99.5957 32.207C99.459 32.3008 99.3516 32.4297 99.2734 32.5938C99.1992 32.7539 99.1465 32.9395 99.1152 33.1504C99.084 33.3613 99.0684 33.584 99.0684 33.8184V34.041C99.0684 34.2754 99.0996 34.4883 99.1621 34.6797C99.2285 34.8711 99.3223 35.0352 99.4434 35.1719C99.5684 35.3047 99.7168 35.4082 99.8887 35.4824C100.064 35.5566 100.264 35.5938 100.486 35.5938C100.756 35.5938 101.021 35.543 101.283 35.4414C101.545 35.3398 101.77 35.1719 101.957 34.9375L102.854 36.0039C102.725 36.1875 102.541 36.3652 102.303 36.5371C102.068 36.709 101.787 36.8496 101.459 36.959C101.131 37.0645 100.764 37.1172 100.357 37.1172ZM107.119 35.4062V32.793C107.119 32.6133 107.094 32.459 107.043 32.3301C106.992 32.2012 106.912 32.1016 106.803 32.0312C106.693 31.957 106.547 31.9199 106.363 31.9199C106.215 31.9199 106.088 31.9453 105.982 31.9961C105.877 32.0469 105.797 32.123 105.742 32.2246C105.688 32.3262 105.66 32.4551 105.66 32.6113H103.686C103.686 32.3184 103.75 32.0469 103.879 31.7969C104.012 31.543 104.199 31.3223 104.441 31.1348C104.688 30.9473 104.98 30.8027 105.32 30.7012C105.664 30.5957 106.047 30.543 106.469 30.543C106.973 30.543 107.422 30.627 107.816 30.7949C108.215 30.9629 108.529 31.2148 108.76 31.5508C108.99 31.8828 109.105 32.3008 109.105 32.8047V35.4004C109.105 35.8145 109.129 36.1289 109.176 36.3438C109.223 36.5547 109.289 36.7402 109.375 36.9004V37H107.395C107.301 36.8047 107.23 36.5664 107.184 36.2852C107.141 36 107.119 35.707 107.119 35.4062ZM107.359 33.127L107.371 34.1816H106.498C106.314 34.1816 106.158 34.207 106.029 34.2578C105.904 34.3086 105.803 34.3789 105.725 34.4688C105.65 34.5547 105.596 34.6523 105.561 34.7617C105.529 34.8711 105.514 34.9863 105.514 35.1074C105.514 35.2246 105.541 35.3301 105.596 35.4238C105.654 35.5137 105.732 35.584 105.83 35.6348C105.928 35.6855 106.037 35.7109 106.158 35.7109C106.377 35.7109 106.562 35.6699 106.715 35.5879C106.871 35.502 106.99 35.3984 107.072 35.2773C107.154 35.1562 107.195 35.043 107.195 34.9375L107.629 35.7461C107.551 35.9023 107.461 36.0605 107.359 36.2207C107.262 36.3809 107.139 36.5293 106.99 36.666C106.846 36.7988 106.668 36.9082 106.457 36.9941C106.246 37.0762 105.99 37.1172 105.689 37.1172C105.299 37.1172 104.939 37.0371 104.611 36.877C104.287 36.7168 104.027 36.4941 103.832 36.209C103.637 35.9199 103.539 35.5879 103.539 35.2129C103.539 34.8848 103.598 34.5918 103.715 34.334C103.836 34.0762 104.018 33.8574 104.26 33.6777C104.502 33.498 104.811 33.3613 105.186 33.2676C105.561 33.1738 106.002 33.127 106.51 33.127H107.359ZM112.287 28V37H110.307V28H112.287ZM116.846 30.6602V32.0312H113.025V30.6602H116.846ZM113.828 29.084H115.803V34.9316C115.803 35.0996 115.822 35.2305 115.861 35.3242C115.9 35.4141 115.967 35.4785 116.061 35.5176C116.158 35.5527 116.287 35.5703 116.447 35.5703C116.561 35.5703 116.654 35.5684 116.729 35.5645C116.803 35.5566 116.873 35.5469 116.939 35.5352V36.9473C116.771 37.002 116.596 37.043 116.412 37.0703C116.229 37.1016 116.033 37.1172 115.826 37.1172C115.404 37.1172 115.043 37.0508 114.742 36.918C114.445 36.7852 114.219 36.5762 114.062 36.291C113.906 36.0059 113.828 35.6348 113.828 35.1777V29.084ZM119.564 28V37H117.59V28H119.564ZM119.33 33.6133L118.867 33.625C118.867 33.1797 118.922 32.7695 119.031 32.3945C119.141 32.0195 119.297 31.6934 119.5 31.416C119.703 31.1387 119.947 30.9238 120.232 30.7715C120.518 30.6191 120.834 30.543 121.182 30.543C121.494 30.543 121.779 30.5879 122.037 30.6777C122.299 30.7676 122.523 30.9121 122.711 31.1113C122.902 31.3105 123.049 31.5703 123.15 31.8906C123.256 32.2109 123.309 32.6016 123.309 33.0625V37H121.322V33.0508C121.322 32.793 121.285 32.5938 121.211 32.4531C121.141 32.3086 121.039 32.209 120.906 32.1543C120.773 32.0957 120.611 32.0664 120.42 32.0664C120.189 32.0664 120.002 32.1055 119.857 32.1836C119.713 32.2617 119.602 32.3711 119.523 32.5117C119.449 32.6484 119.398 32.8105 119.371 32.998C119.344 33.1855 119.33 33.3906 119.33 33.6133Z" fill="black"/>
    <mask id="path-2-inside-1_18_2" fill="white">
        <path fill-rule="evenodd" clip-rule="evenodd" d="M21.3333 3H10.6667V13.6667H0V24.3333H10.6667V35H21.3333V24.3333H32V13.6667H21.3333V3Z"/>
    </mask>
    <path fill-rule="evenodd" clip-rule="evenodd" d="M21.3333 3H10.6667V13.6667H0V24.3333H10.6667V35H21.3333V24.3333H32V13.6667H21.3333V3Z" fill="#EE0000"/>
    <path d="M10.6667 3V2.11111H9.77778V3H10.6667ZM21.3333 3H22.2222V2.11111H21.3333V3ZM10.6667 13.6667V14.5556H11.5556V13.6667H10.6667ZM0 13.6667V12.7778H-0.888889V13.6667H0ZM0 24.3333H-0.888889V25.2222H0V24.3333ZM10.6667 24.3333H11.5556V23.4444H10.6667V24.3333ZM10.6667 35H9.77778V35.8889H10.6667V35ZM21.3333 35V35.8889H22.2222V35H21.3333ZM21.3333 24.3333V23.4444H20.4444V24.3333H21.3333ZM32 24.3333V25.2222H32.8889V24.3333H32ZM32 13.6667H32.8889V12.7778H32V13.6667ZM21.3333 13.6667H20.4444V14.5556H21.3333V13.6667ZM10.6667 3.88889H21.3333V2.11111H10.6667V3.88889ZM11.5556 13.6667V3H9.77778V13.6667H11.5556ZM0 14.5556H10.6667V12.7778H0V14.5556ZM0.888889 24.3333V13.6667H-0.888889V24.3333H0.888889ZM10.6667 23.4444H0V25.2222H10.6667V23.4444ZM11.5556 35V24.3333H9.77778V35H11.5556ZM21.3333 34.1111H10.6667V35.8889H21.3333V34.1111ZM20.4444 24.3333V35H22.2222V24.3333H20.4444ZM32 23.4444H21.3333V25.2222H32V23.4444ZM31.1111 13.6667V24.3333H32.8889V13.6667H31.1111ZM21.3333 14.5556H32V12.7778H21.3333V14.5556ZM20.4444 3V13.6667H22.2222V3H20.4444Z" fill="#FF0000" mask="url(#path-2-inside-1_18_2)"/>
    <rect y="17.5776" width="32" height="2.84444" fill="white"/>
</svg>
