<svg width="3434" height="803" viewBox="0 0 3434 803" fill="none" xmlns="http://www.w3.org/2000/svg">
<path fill-rule="evenodd" clip-rule="evenodd" d="M258.17 0H405.558L384.502 152.952H531.89L552.945 0H700.333L679.278 152.952H847.721L813.944 305.905H658.223L631.903 497.095H810.874L777.097 650.048H610.848L589.792 803H442.405L463.46 650.048H316.072L295.017 803H147.629L168.685 650.048H0.241455L34.018 497.095H189.74L216.059 305.905H37.0884L70.8649 152.952H237.115L258.17 0ZM484.515 497.095L510.835 305.905H363.447L337.128 497.095H484.515Z" fill="#262FA6"/>
<path d="M2205.22 661.406C2353.67 661.406 2428.23 584.735 2428.23 493.866C2428.23 377.25 2320.91 355.028 2242.93 338.882C2198.44 329.67 2163.49 322.435 2163.49 300.77C2163.49 283.732 2178.54 269.534 2225.75 269.534C2267.47 269.534 2311.94 281.602 2359.14 306.449L2407.71 185.054C2357.77 155.948 2291.42 141.75 2227.11 141.75C2078.67 141.75 2004.1 217.001 2004.1 309.289C2004.1 426.51 2110.06 449.398 2187.91 466.214C2233.12 475.978 2268.84 483.695 2268.84 506.645C2268.84 523.683 2252.42 533.621 2206.59 533.621C2153.92 533.621 2093.72 515.874 2048.57 488.187L1996.58 610.292C2044.46 640.818 2125.19 661.406 2205.22 661.406Z" fill="#262FA6"/>
<path fill-rule="evenodd" clip-rule="evenodd" d="M1481.39 283.022C1481.39 329.167 1458.82 367.502 1415.04 390.219C1471.13 411.516 1503.97 454.111 1503.97 513.034C1503.97 599.643 1433.51 650.047 1301.48 650.047H1031.95V153.108H1287.8C1419.82 153.108 1481.39 207.772 1481.39 283.022ZM1318.58 307.159C1318.58 283.022 1302.16 270.244 1265.91 270.244H1190.66V344.075H1265.91C1302.16 344.075 1318.58 331.296 1318.58 307.159ZM1190.66 532.911H1287.8C1323.37 532.911 1341.15 519.423 1341.15 493.866C1341.15 468.309 1323.37 454.821 1287.8 454.821H1190.66V532.911Z" fill="#262FA6"/>
<path d="M1860.23 153.108H2016.2L1835.6 469.729V650.047H1674.16V467.6L1493.56 153.108H1663.9L1761.72 324.907L1860.23 153.108Z" fill="#262FA6"/>
<path fill-rule="evenodd" clip-rule="evenodd" d="M2997.55 401.578C2997.55 552.079 2883.31 661.406 2727.33 661.406C2571.36 661.406 2457.12 552.079 2457.12 401.578C2457.12 251.076 2571.36 141.75 2727.33 141.75C2883.31 141.75 2997.55 251.076 2997.55 401.578ZM2619.93 401.578C2619.93 478.958 2667.82 525.812 2727.33 525.812C2786.85 525.812 2834.74 478.958 2834.74 401.578C2834.74 324.197 2786.85 277.343 2727.33 277.343C2667.82 277.343 2619.93 324.197 2619.93 401.578Z" fill="#262FA6"/>
<path d="M3056.14 650.047H3433.76V520.133H3217.59V153.108H3056.14V650.047Z" fill="#262FA6"/>
</svg>
